<svg xmlns="http://www.w3.org/2000/svg" width="390.59299pt" height="319.62701pt" fill-rule="evenodd" viewBox="0 0 390.59299 400.62701"><path d="M353.715 603.821c55.572 0 104.52-28.377 133.156-71.429H220.542c28.634 43.052 77.587 71.429 133.173 71.429zM353.711 365.03c40.121 0 73.263 29.974 78.256 68.781h81.231c-5.253-83.511-74.657-149.617-159.483-149.617-84.844 0-154.245 66.106-159.5 149.617h81.232c4.997-38.807 38.129-68.781 78.264-68.781zM353.704 472.04s-3.961-26.084-23.24-26.061l-172.053-.031 7.308 10.161 167.806-.006s12.245.851 20.179 15.937zM353.704 498.007s-3.294-23.901-24.759-24.639l-150.809.005 10.728 14.923 145.639-.047s13.711-.005 19.201 9.758zM335.438 500.921l-137.494.002 13.904 19.332 141.856-.017c-6.851-17.327-18.266-19.317-18.266-19.317zM376.949 445.979c-19.28-.023-23.245 26.061-23.245 26.061 7.937-15.086 20.182-15.937 20.182-15.937l167.807.01 7.311-10.165z" style="fill:#00569f;stroke:none" transform="translate(-158.411 -284.194)"/><path d="M353.704 498.007c5.489-9.763 19.2-9.758 19.2-9.758l145.641.05 10.736-14.926-150.823-.005c-21.46.738-24.754 24.639-24.754 24.639zM353.704 520.238l141.864.017 13.896-19.332-137.495-.002s-11.411 1.99-18.265 19.317z" style="fill:#00569f;stroke:none" transform="translate(-158.411 -284.194)"/></svg>